<?xml version="1.0" standalone="no"?>
<!DOCTYPE svg PUBLIC "-//W3C//DTD SVG 20010904//EN"
 "http://www.w3.org/TR/2001/REC-SVG-20010904/DTD/svg10.dtd">
<svg version="1.0" xmlns="http://www.w3.org/2000/svg"
 width="300.000000pt" height="300.000000pt" viewBox="0 0 300.000000 300.000000"
 preserveAspectRatio="xMidYMid meet">
<metadata>
Created by potrace 1.11, written by Peter Selinger 2001-2013
</metadata>
<g transform="translate(0.000000,300.000000) scale(0.100000,-0.100000)"
fill="#000000" stroke="none">
<path d="M1347 2495 c-118 -41 -213 -149 -260 -295 -16 -51 -19 -143 -6 -177
6 -16 4 -25 -6 -30 -29 -16 -106 -147 -127 -216 -19 -60 -22 -94 -22 -202 1
-150 20 -243 109 -550 31 -105 58 -198 60 -209 8 -33 71 -70 150 -88 41 -9
229 -13 242 -5 5 3 8 -38 8 -91 l0 -96 -45 -24 c-55 -29 -100 -70 -151 -138
l-38 -52 -64 3 c-107 3 -188 -47 -226 -142 -7 -18 -11 -42 -8 -53 3 -11 2 -20
-3 -20 -10 0 8 -80 22 -97 13 -17 1198 -19 1198 -3 0 6 -20 39 -45 75 -41 57
-43 65 -25 65 11 0 30 -6 42 -12 24 -14 72 -58 63 -58 -3 0 0 -10 7 -22 7 -13
11 -31 9 -40 -2 -16 8 -18 89 -18 l91 0 -4 45 c-5 54 -60 169 -96 202 -42 37
-89 64 -124 71 -40 8 -121 7 -167 0 -33 -6 -37 -3 -75 45 -45 58 -139 126
-212 153 -26 9 -50 19 -52 20 -5 4 -11 58 -15 141 -4 79 -6 76 60 88 17 2 62
14 100 26 38 12 74 22 79 24 6 1 24 7 40 14 17 7 42 15 57 18 15 3 29 13 30
22 5 22 -15 137 -42 241 -12 47 -23 94 -25 105 -1 11 -5 27 -8 35 -22 54 -49
220 -52 317 -3 103 -1 117 21 162 30 60 69 79 182 87 42 3 80 9 84 13 36 34
-32 271 -91 319 -74 59 -180 85 -353 85 -71 0 -128 2 -129 6 -1 3 -3 28 -5 54
-4 49 -32 116 -63 151 -43 49 -140 73 -204 51z m-160 -2327 c-2 -7 -15 -41
-27 -76 -23 -62 -23 -62 -36 -36 -20 38 -17 81 6 104 22 22 65 28 57 8z"/>
</g>
</svg>
